<?xml version="1.0" standalone="no"?>
<!DOCTYPE svg PUBLIC "-//W3C//DTD SVG 20010904//EN"
 "http://www.w3.org/TR/2001/REC-SVG-20010904/DTD/svg10.dtd">
<svg version="1.0" xmlns="http://www.w3.org/2000/svg"
 width="256.000000pt" height="256.000000pt" viewBox="0 0 256.000000 256.000000"
 preserveAspectRatio="xMidYMid meet">
<metadata>
Created by potrace 1.11, written by Peter Selinger 2001-2013
</metadata>
<g transform="translate(0.000000,256.000000) scale(0.100000,-0.100000)"
fill="#000000" stroke="none">
<path d="M993 2305 c-17 -7 -39 -24 -47 -38 -9 -13 -62 -251 -120 -542 l-104
-518 179 179 179 179 51 258 52 257 206 0 206 0 104 104 c116 116 116 108 -4
126 -112 16 -663 12 -702 -5z"/>
<path d="M1781 2156 l-104 -104 30 -16 c17 -8 43 -30 58 -47 l26 -32 110 109
c60 60 109 111 109 114 0 7 -110 80 -119 80 -4 0 -53 -47 -110 -104z"/>
<path d="M1934 1988 l-121 -123 -12 -75 c-32 -207 -168 -346 -366 -373 l-85
-11 -112 -113 -113 -113 140 0 c241 -1 341 -26 413 -104 53 -58 65 -100 60
-205 -11 -188 -107 -320 -289 -394 -50 -20 -74 -22 -321 -25 -149 -2 -268 0
-268 5 0 5 25 132 55 283 30 150 54 275 52 276 -2 2 -82 -76 -179 -174 l-175
-177 -37 -189 c-21 -104 -35 -199 -32 -212 4 -13 18 -32 33 -41 24 -16 59 -18
286 -21 539 -7 718 28 919 179 124 93 221 246 252 401 55 269 -43 467 -269
543 -16 5 -10 12 40 38 89 47 194 155 238 247 50 103 68 178 68 290 0 74 -5
109 -21 153 -12 31 -25 57 -28 57 -4 0 -62 -55 -128 -122z"/>
<path d="M867 1242 l-172 -172 -26 -130 c-14 -72 -26 -130 -25 -130 1 0 136
135 300 299 l299 300 -102 3 -101 3 -173 -173z"/>
</g>
</svg>
